<?xml version="1.0" standalone="no"?>
<!DOCTYPE svg PUBLIC "-//W3C//DTD SVG 20010904//EN"
 "http://www.w3.org/TR/2001/REC-SVG-20010904/DTD/svg10.dtd">
<svg version="1.0" xmlns="http://www.w3.org/2000/svg"
 width="498.000000pt" height="498.000000pt" viewBox="0 0 498.000000 498.000000"
 preserveAspectRatio="xMidYMid meet">

<g transform="translate(0.000000,498.000000) scale(0.100000,-0.100000)"
fill="#000000" stroke="none">
<path d="M2275 4969 c-603 -56 -1150 -317 -1570 -750 -380 -392 -615 -883
-687 -1439 -18 -141 -15 -470 6 -615 79 -548 304 -1013 681 -1404 96 -100 235
-220 336 -291 93 -65 61 -30 -44 49 -89 67 -342 313 -389 378 -13 17 -43 58
-68 90 -50 64 -130 182 -130 190 0 3 -9 18 -20 33 -12 16 -40 67 -64 112 -24
46 -48 93 -54 103 -14 24 -52 112 -52 119 0 2 -5 17 -12 33 -6 15 -12 30 -13
33 -5 15 -27 68 -35 85 -5 11 -12 34 -14 50 -2 17 -5 31 -6 33 -2 1 -3 5 -5
10 -1 4 -4 14 -7 22 -8 19 -25 94 -34 145 -4 22 -9 47 -10 55 -2 8 -8 53 -14
99 -6 47 -14 89 -17 94 -10 16 -12 419 -2 502 13 113 49 334 60 371 5 17 11
40 14 50 5 21 73 212 103 289 33 85 98 219 128 266 36 55 42 65 78 125 36 59
122 177 162 221 16 17 37 43 47 57 30 40 161 176 171 176 4 0 17 11 27 24 32
41 215 188 288 231 19 11 57 35 85 54 57 38 274 148 381 193 251 106 532 158
870 163 99 1 214 -2 255 -6 163 -16 205 -22 214 -26 4 -3 52 -14 105 -25 132
-26 125 -24 215 -54 153 -50 299 -115 441 -194 33 -19 72 -40 86 -47 15 -7 32
-20 39 -28 7 -8 18 -15 25 -15 6 0 20 -9 30 -20 10 -11 22 -20 26 -20 5 0 19
-9 31 -19 13 -11 46 -38 73 -60 154 -127 299 -269 380 -376 17 -21 44 -55 60
-74 17 -20 36 -48 44 -62 7 -14 24 -39 38 -55 29 -34 122 -183 146 -235 9 -20
23 -42 32 -49 8 -7 15 -16 15 -21 0 -5 13 -38 30 -73 16 -36 32 -76 34 -88 3
-13 14 -50 26 -83 17 -49 41 -128 54 -180 2 -5 6 -17 9 -25 3 -8 7 -26 10 -40
3 -14 14 -71 26 -128 33 -161 42 -270 40 -487 -2 -241 -18 -351 -90 -630 -12
-44 -25 -89 -30 -100 -5 -11 -15 -38 -22 -60 -71 -202 -121 -310 -198 -422
-16 -23 -29 -44 -29 -47 0 -7 -80 -124 -145 -211 -83 -111 -261 -292 -380
-387 -55 -44 -109 -87 -120 -96 -11 -10 -61 -44 -111 -77 -127 -83 -136 -90
-79 -59 84 46 245 158 345 242 183 153 376 375 514 592 110 173 231 453 287
664 184 698 65 1427 -330 2023 -97 146 -238 316 -253 307 -6 -4 -8 -3 -5 3 9
15 -190 204 -308 294 -350 263 -771 434 -1205 489 -122 15 -398 20 -515 9z"/>
<path d="M2485 4833 c-104 -2 -330 -19 -385 -30 -14 -2 -59 -10 -100 -17 -41
-7 -82 -15 -90 -18 -8 -4 -28 -9 -45 -13 -16 -3 -39 -8 -50 -10 -46 -10 -212
-78 -255 -106 -8 -5 -22 -12 -30 -15 -8 -3 -23 -10 -32 -15 -10 -5 -24 -9 -31
-9 -8 0 -31 -11 -51 -25 -20 -13 -36 -21 -36 -18 0 4 -10 -2 -22 -13 -13 -11
-36 -26 -53 -34 -29 -14 -85 -50 -95 -60 -3 -3 -32 -23 -65 -45 -33 -21 -76
-52 -96 -69 -19 -17 -46 -38 -59 -46 -33 -21 -78 -60 -103 -90 -12 -14 -54
-56 -93 -95 -38 -38 -91 -100 -117 -137 -26 -37 -51 -68 -55 -70 -14 -6 -69
-84 -77 -108 -4 -14 -20 -37 -36 -52 -15 -15 -36 -44 -45 -65 -10 -20 -27 -46
-36 -55 -10 -10 -21 -32 -25 -48 -3 -17 -9 -30 -13 -30 -4 0 -19 -28 -34 -62
-15 -35 -31 -71 -37 -80 -5 -10 -9 -24 -9 -32 0 -8 -11 -37 -25 -64 -14 -28
-25 -58 -25 -68 0 -11 -9 -39 -21 -63 -11 -25 -17 -51 -15 -58 3 -7 2 -13 -3
-13 -10 0 -37 -115 -50 -215 -6 -38 -13 -81 -16 -95 -3 -14 -10 -65 -15 -115
-28 -267 9 -610 94 -890 48 -155 50 -160 184 -435 9 -19 34 -61 54 -93 21 -32
38 -61 38 -64 0 -8 88 -127 176 -236 90 -113 312 -333 377 -374 23 -14 44 -29
47 -33 3 -4 41 -29 85 -56 80 -48 141 -87 160 -101 18 -14 122 -63 133 -63 6
0 17 -6 24 -13 12 -12 194 -80 283 -106 67 -19 289 -71 325 -76 14 -2 66 -8
115 -15 116 -15 492 -11 565 6 30 6 75 14 100 17 45 6 146 29 206 47 17 6 40
10 52 10 11 0 24 5 27 10 3 6 16 10 29 10 12 0 26 3 30 7 3 4 16 8 28 10 12 2
25 7 28 12 3 5 24 12 48 16 23 4 48 12 55 19 10 10 34 23 57 31 3 1 18 7 33
13 16 7 31 12 34 12 3 0 33 17 67 38 34 21 82 49 109 62 26 14 47 28 47 32 0
5 6 8 13 8 6 1 28 14 47 30 19 17 38 30 43 30 5 0 14 6 22 12 7 7 28 24 47 38
18 14 43 35 56 48 13 12 26 22 30 22 4 0 27 20 52 45 25 24 51 44 58 45 6 0
12 3 12 8 0 8 43 58 125 145 30 32 55 62 55 67 0 4 7 10 15 13 8 4 24 21 37
40 13 19 56 82 96 141 39 59 72 113 72 121 0 7 4 15 8 17 18 7 99 143 108 183
6 24 37 102 56 144 12 25 23 51 24 58 4 24 27 88 34 98 5 6 13 39 20 75 6 36
15 74 20 85 13 32 35 154 51 280 14 110 23 435 11 435 -5 0 -12 33 -14 73 -7
102 -49 276 -128 537 -38 123 -52 160 -62 160 -5 0 -8 9 -8 19 0 35 -135 265
-150 256 -9 -6 -32 19 -29 31 6 24 -74 150 -123 195 -10 9 -18 21 -18 26 0 5
-10 19 -22 30 -25 22 -44 44 -71 83 -9 13 -17 20 -17 15 0 -6 -8 2 -18 18 -10
15 -22 24 -25 20 -4 -3 -7 1 -7 10 0 8 -8 18 -18 22 -11 3 -42 29 -70 58 -85
88 -148 142 -224 195 -26 18 -54 40 -64 49 -10 10 -20 18 -23 17 -3 -1 -15 4
-26 11 -172 105 -416 213 -595 262 -69 19 -66 18 -125 27 -27 4 -59 11 -70 16
-23 10 -105 23 -155 25 -19 1 -42 5 -50 8 -21 8 -134 12 -265 10z m441 -179
c-6 -17 31 -34 73 -34 15 0 31 -4 37 -9 5 -5 23 -11 39 -14 17 -2 37 -6 45 -9
8 -4 36 -12 63 -18 26 -7 50 -17 53 -21 3 -5 12 -9 19 -9 8 0 39 -11 69 -25
30 -14 59 -25 64 -25 5 0 15 -7 22 -15 6 -8 15 -13 18 -12 10 3 164 -73 185
-91 9 -8 17 -11 17 -7 0 5 12 -3 28 -16 15 -14 41 -34 57 -44 17 -9 46 -29 65
-44 19 -14 38 -26 42 -26 3 0 29 -21 56 -47 27 -26 52 -45 54 -43 6 6 288
-281 288 -293 0 -5 9 -17 20 -27 11 -10 20 -22 20 -27 0 -5 18 -31 40 -59 22
-28 40 -57 40 -64 0 -7 7 -19 16 -26 9 -7 20 -22 25 -34 5 -11 18 -33 28 -50
26 -39 105 -200 121 -245 7 -19 17 -39 22 -45 4 -5 8 -22 8 -37 0 -15 5 -28
10 -28 6 0 10 -9 10 -20 0 -11 4 -28 9 -38 10 -18 30 -90 38 -132 2 -14 10
-47 18 -75 7 -27 16 -70 19 -95 3 -25 7 -56 10 -70 15 -78 28 -471 16 -495 -5
-11 -6 -19 -11 -110 -2 -33 -7 -62 -11 -65 -4 -3 -9 -26 -11 -50 -2 -25 -9
-56 -16 -68 -7 -13 -10 -26 -8 -28 3 -3 -2 -31 -10 -62 -8 -31 -16 -61 -18
-67 -1 -5 -7 -23 -13 -38 -7 -16 -12 -32 -12 -36 0 -4 -9 -26 -20 -49 -11 -22
-20 -48 -20 -56 0 -8 -10 -36 -22 -63 -26 -57 -30 -70 -25 -77 1 -2 -7 -14
-18 -27 -12 -13 -14 -19 -5 -14 8 4 5 -3 -7 -17 -13 -13 -23 -29 -23 -35 0 -6
-7 -16 -15 -23 -9 -7 -25 -33 -35 -56 -11 -24 -25 -46 -30 -49 -6 -4 -8 -10
-5 -14 2 -5 -7 -19 -21 -32 -15 -13 -30 -33 -35 -44 -17 -35 -37 -67 -46 -74
-5 -3 -33 -35 -63 -71 -92 -111 -318 -324 -344 -325 -6 -1 -10 -7 -8 -14 1 -7
-2 -10 -7 -7 -5 3 -15 -1 -22 -10 -17 -21 -130 -94 -144 -94 -6 0 -22 -11 -35
-25 -13 -14 -29 -25 -35 -25 -7 0 -28 -11 -48 -24 -19 -13 -46 -27 -58 -31
-13 -4 -32 -14 -41 -23 -10 -8 -18 -12 -18 -8 0 3 -13 0 -30 -9 -16 -9 -30
-12 -30 -9 0 4 -8 0 -17 -8 -14 -11 -84 -39 -113 -44 -3 0 -18 -6 -34 -13 -16
-6 -38 -13 -50 -16 -11 -2 -21 -4 -21 -5 0 -1 -11 -4 -25 -6 -13 -3 -29 -9
-34 -14 -6 -6 -22 -10 -37 -10 -15 0 -40 -5 -56 -12 -15 -6 -35 -12 -43 -12
-8 -1 -19 -4 -25 -7 -5 -4 -23 -7 -40 -7 -16 0 -43 -3 -60 -6 -112 -19 -179
-25 -324 -25 -90 0 -168 2 -174 6 -5 3 -35 7 -66 9 -57 4 -223 31 -251 41 -8
4 -19 7 -25 7 -45 6 -96 19 -100 26 -3 5 -26 12 -51 16 -25 3 -77 22 -115 40
-38 19 -78 34 -88 34 -10 0 -21 3 -25 8 -4 4 -11 7 -14 8 -17 1 -100 45 -111
58 -8 9 -17 14 -21 11 -4 -3 -13 2 -20 10 -7 8 -19 15 -26 15 -8 0 -14 5 -14
10 0 6 -7 10 -15 10 -8 0 -24 9 -35 20 -11 11 -25 20 -30 20 -14 0 -82 44 -99
64 -7 9 -19 16 -26 16 -6 0 -20 9 -30 20 -10 11 -22 17 -28 13 -6 -3 -7 -1 -3
5 4 6 -4 16 -16 23 -26 13 -308 289 -308 301 0 7 -115 155 -130 168 -3 3 -14
22 -23 42 -10 20 -22 40 -28 44 -6 3 -14 16 -20 27 -5 12 -13 29 -18 37 -5 8
-24 47 -42 85 -17 39 -36 73 -41 76 -5 3 -9 9 -9 13 1 3 -6 22 -14 42 -8 20
-15 43 -15 51 0 8 -4 11 -10 8 -5 -3 -10 0 -11 7 -1 27 -8 51 -23 81 -14 32
-51 159 -59 207 -2 14 -7 32 -10 40 -6 14 -29 139 -41 220 -6 39 -8 526 -3
550 5 20 19 109 22 135 1 11 3 20 5 20 1 0 8 27 16 60 18 80 17 75 58 195 20
58 39 118 42 135 6 29 13 44 54 113 11 17 17 32 13 32 -3 0 1 8 9 18 15 17 29
49 25 56 -1 3 9 16 22 30 14 15 26 33 27 40 2 14 42 76 56 86 4 3 14 22 22 41
8 20 22 41 30 49 9 7 16 16 16 21 0 5 24 34 54 66 30 31 53 60 51 63 -2 4 47
58 110 120 63 62 115 110 115 105 0 -4 22 12 48 36 53 49 122 104 131 104 6 1
133 81 182 116 15 10 39 21 53 25 14 3 30 12 37 20 6 8 17 14 23 14 6 0 23 6
38 14 14 8 42 19 61 25 20 7 41 19 47 27 7 7 24 14 39 14 14 0 51 9 81 21 84
32 226 68 335 85 17 2 57 9 90 14 106 18 552 8 668 -13 22 -5 27 -2 27 14 0
12 4 17 11 14 6 -4 8 -13 5 -21z m294 -39 c0 -8 -4 -15 -9 -15 -13 0 -22 16
-14 24 11 11 23 6 23 -9z m910 -565 c0 -5 -2 -10 -4 -10 -3 0 -8 5 -11 10 -3
6 -1 10 4 10 6 0 11 -4 11 -10z m620 -1650 c0 -5 -4 -10 -10 -10 -5 0 -10 5
-10 10 0 6 5 10 10 10 6 0 10 -4 10 -10z m-13 -292 c-3 -8 -6 -5 -6 6 -1 11 2
17 5 13 3 -3 4 -12 1 -19z m-897 -1468 c0 -5 -4 -10 -10 -10 -5 0 -10 5 -10
10 0 6 5 10 10 10 6 0 10 -4 10 -10z"/>
<path d="M2290 4569 c-25 -5 -85 -15 -135 -23 -171 -28 -341 -74 -430 -115
-204 -96 -272 -132 -385 -206 -225 -147 -499 -421 -595 -595 -11 -19 -26 -43
-33 -52 -29 -35 -124 -216 -146 -275 -7 -21 -25 -72 -40 -113 -15 -41 -31 -84
-35 -95 -13 -31 -30 -88 -35 -115 -2 -14 -11 -54 -19 -90 -9 -36 -19 -103 -22
-150 -4 -47 -9 -88 -11 -92 -2 -3 -6 -66 -9 -140 -4 -142 20 -387 51 -503 8
-33 20 -78 25 -100 41 -168 206 -526 284 -615 12 -14 33 -41 46 -61 41 -62
219 -263 269 -304 21 -17 47 -39 153 -130 10 -9 46 -33 80 -54 34 -21 80 -50
102 -65 68 -47 315 -162 415 -194 150 -48 200 -61 327 -82 196 -34 581 -34
705 1 24 6 72 17 108 24 93 18 219 52 233 63 7 5 35 17 62 27 28 10 77 30 110
45 33 15 67 30 75 34 8 3 38 20 65 36 28 17 58 33 68 36 9 4 17 10 17 14 0 5
8 11 19 15 43 13 283 206 350 279 14 17 46 51 71 76 66 69 100 109 100 120 0
6 4 10 9 10 18 0 175 241 238 365 58 114 122 284 142 375 7 30 16 64 21 75 33
80 67 442 55 580 -4 44 -9 98 -11 120 -16 173 -71 402 -131 545 -56 134 -92
205 -158 315 -78 128 -185 274 -202 275 -6 0 -20 15 -31 33 -20 31 -155 168
-237 239 -50 44 -230 168 -243 168 -6 0 -12 4 -14 9 -3 9 -260 141 -275 141
-5 0 -44 14 -88 31 -124 48 -289 88 -455 110 -106 14 -400 19 -460 8z m-607
-533 c18 -7 68 -45 111 -85 59 -52 99 -79 155 -102 190 -79 262 -132 304 -226
36 -81 52 -222 38 -337 -6 -47 -8 -93 -5 -101 4 -8 2 -15 -3 -15 -5 0 -15 -24
-22 -52 -13 -61 -67 -207 -105 -288 -14 -30 -26 -65 -26 -77 0 -12 -4 -25 -10
-28 -13 -8 -13 -25 0 -25 5 0 12 11 16 25 3 14 11 29 18 33 6 4 17 18 25 32
137 240 178 307 226 372 72 97 130 138 194 138 86 -1 180 -62 223 -144 42 -82
2 -235 -136 -526 -105 -219 -122 -260 -131 -301 l-7 -34 29 32 c15 17 38 49
51 70 30 51 173 287 247 407 107 173 159 250 186 269 79 57 203 26 276 -69 26
-35 28 -44 27 -118 -2 -97 -30 -183 -107 -326 -129 -242 -163 -330 -158 -413
2 -27 14 -18 60 42 22 30 80 98 130 151 133 143 157 174 198 257 32 65 37 86
41 161 l4 87 -56 85 c-61 93 -69 127 -33 135 34 8 88 0 124 -18 43 -23 123
-101 123 -121 0 -9 3 -16 8 -16 37 1 84 112 90 212 5 88 -17 172 -43 162 -8
-3 -33 -40 -55 -82 -65 -122 -115 -150 -164 -91 -33 39 -40 67 -31 125 7 48
40 88 133 164 37 30 45 44 58 98 7 34 23 81 35 103 18 36 23 40 47 34 15 -4
29 -8 31 -10 8 -9 20 -93 21 -144 0 -45 7 -67 44 -130 61 -108 69 -137 64
-255 -3 -91 -7 -110 -35 -167 -18 -35 -55 -95 -83 -134 -29 -38 -76 -120 -106
-182 -47 -96 -66 -124 -146 -208 -51 -54 -125 -131 -164 -172 -74 -78 -94
-107 -142 -208 -63 -133 -68 -274 -12 -393 31 -66 98 -142 125 -142 8 0 15 -7
15 -15 0 -8 9 -15 19 -15 24 0 18 36 -8 45 -17 6 -53 60 -90 132 -48 97 -44
249 11 361 25 52 57 91 143 176 60 60 109 113 107 118 -1 5 2 7 6 4 5 -3 18 4
28 15 40 44 94 63 179 63 44 0 92 -4 107 -8 22 -7 36 -1 84 33 63 45 101 52
129 21 17 -19 17 -22 -10 -83 -25 -61 -26 -68 -15 -123 6 -33 18 -81 27 -109
23 -76 29 -329 10 -435 -30 -167 -57 -214 -195 -332 -29 -25 -32 -33 -32 -84
0 -76 -18 -134 -41 -134 -10 0 -32 20 -50 46 -43 62 -71 72 -209 72 -150 0
-241 19 -358 78 -300 151 -463 494 -422 888 6 59 8 111 5 114 -7 8 -39 -25
-62 -64 -10 -17 -37 -62 -59 -100 -84 -140 -157 -272 -211 -384 -97 -201 -147
-260 -221 -260 -71 0 -141 65 -168 157 -13 46 -16 82 -11 183 7 152 39 283
103 429 13 29 21 58 17 64 -3 5 -2 8 3 5 9 -5 224 428 224 451 0 6 -6 11 -12
11 -21 -1 -184 -256 -279 -435 -29 -55 -71 -134 -95 -175 -67 -121 -174 -336
-200 -408 -35 -91 -64 -217 -64 -277 -1 -69 -15 -127 -36 -142 -48 -35 -159 8
-226 86 -64 75 -98 254 -79 415 21 176 62 300 239 726 22 52 47 119 56 148
l15 53 -47 -8 c-26 -4 -81 -7 -123 -5 l-76 3 1 -103 c1 -89 -2 -109 -21 -145
-25 -46 -117 -143 -136 -143 -7 0 -22 -6 -33 -14 -11 -8 -52 -24 -92 -36 -61
-19 -90 -22 -180 -18 -91 3 -116 8 -167 31 -133 62 -215 191 -215 343 0 144
94 371 226 544 97 128 309 320 456 414 l57 36 -2 93 c-1 77 2 99 20 133 24 46
72 90 118 110 39 17 117 17 158 0z m977 -236 c0 -5 -5 -10 -11 -10 -5 0 -7 5
-4 10 3 6 8 10 11 10 2 0 4 -4 4 -10z m-1395 -170 c-5 -8 -11 -8 -17 -2 -6 6
-7 16 -3 22 5 8 11 8 17 2 6 -6 7 -16 3 -22z m-655 -830 c0 -5 -4 -10 -10 -10
-5 0 -10 5 -10 10 0 6 5 10 10 10 6 0 10 -4 10 -10z m3208 -58 c2 -7 -3 -12
-12 -12 -9 0 -16 7 -16 16 0 17 22 14 28 -4z m622 -1002 c0 -5 -5 -10 -11 -10
-5 0 -7 5 -4 10 3 6 8 10 11 10 2 0 4 -4 4 -10z"/>
<path d="M1545 4018 c-49 -18 -83 -47 -111 -93 -23 -39 -25 -55 -25 -140 l1
-95 -41 -28 c-181 -121 -389 -309 -482 -432 -101 -136 -186 -319 -207 -448
-28 -171 41 -327 173 -392 203 -100 505 -17 599 163 29 57 30 159 2 202 -41
63 -92 96 -136 88 -57 -11 -44 -59 29 -112 71 -52 78 -118 18 -184 -48 -51
-101 -70 -177 -65 -83 6 -147 42 -193 107 -29 42 -30 46 -29 154 1 92 5 126
27 192 33 99 99 217 178 315 87 109 305 327 335 334 19 5 41 -3 86 -30 56 -34
69 -38 142 -40 45 -2 73 -1 64 2 -9 3 -15 11 -12 18 3 8 -8 18 -28 26 -54 22
-120 79 -116 102 5 31 84 67 162 75 112 10 136 -17 136 -158 0 -77 -1 -79 -24
-79 -19 0 -23 -4 -19 -20 3 -11 9 -20 14 -20 18 0 8 -30 -15 -46 -26 -16 -25
-44 0 -44 26 0 25 -26 -2 -86 -66 -140 -156 -240 -246 -270 -129 -42 -234 26
-209 137 10 45 55 107 89 125 12 6 31 19 42 29 11 10 20 15 20 12 0 -4 15 2
33 13 17 11 39 20 48 20 9 0 22 6 28 14 9 11 6 14 -16 18 -36 5 -143 -36 -178
-68 -14 -13 -30 -24 -34 -24 -14 0 -79 -77 -100 -119 -42 -80 -39 -188 4 -236
14 -14 25 -30 25 -36 0 -5 6 -9 14 -9 8 0 16 -3 18 -7 2 -5 22 -21 46 -37 54
-37 164 -48 236 -23 l46 16 0 -24 c0 -33 -48 -165 -123 -341 -129 -299 -170
-431 -189 -602 -20 -180 13 -338 86 -413 55 -56 139 -95 172 -80 30 13 44 48
44 111 0 130 69 344 175 545 29 55 98 186 152 290 55 105 121 226 148 270 115
191 244 359 261 342 15 -15 -40 -151 -154 -382 -199 -403 -231 -498 -239 -711
-4 -89 -1 -145 7 -170 20 -65 56 -110 105 -134 40 -19 50 -20 75 -10 46 19 95
80 141 177 135 281 423 780 474 823 16 14 17 12 10 -20 -3 -19 -17 -62 -30
-95 -43 -109 -59 -209 -58 -355 1 -192 41 -332 134 -476 92 -141 221 -241 376
-291 62 -20 104 -26 208 -30 197 -6 211 -9 260 -54 23 -21 45 -36 48 -32 4 3
7 31 7 62 0 31 3 65 6 76 3 11 38 46 79 77 125 99 159 201 160 478 0 150 -3
186 -21 250 -37 129 -38 150 -11 216 26 62 23 84 -14 84 -10 0 -47 -20 -83
-45 l-66 -45 -41 16 c-49 20 -140 15 -190 -11 -41 -22 -255 -234 -292 -290
-52 -80 -69 -147 -64 -248 6 -117 8 -125 42 -159 38 -38 59 -38 39 0 -7 15
-14 35 -14 45 0 10 -5 28 -11 39 -21 39 -11 154 17 209 56 111 165 181 294
187 67 3 81 1 130 -25 66 -35 92 -72 70 -99 -8 -9 -34 -25 -56 -36 -74 -32
-82 -67 -22 -93 67 -28 102 -86 101 -170 0 -86 -54 -198 -131 -273 -23 -22
-82 -57 -82 -48 0 3 -13 1 -29 -4 -44 -12 -171 6 -235 34 -78 35 -168 126
-209 213 -31 66 -32 72 -32 203 1 117 4 143 24 193 37 94 89 161 262 336 90
91 171 182 181 201 9 19 32 69 52 110 19 41 58 107 87 145 28 39 66 99 83 135
29 61 31 72 31 176 l0 111 -51 99 c-46 88 -52 108 -59 184 -4 47 -9 88 -11 92
-3 4 -16 2 -29 -4 -26 -12 -55 -84 -55 -136 0 -25 -37 -66 -122 -135 -61 -48
-79 -99 -57 -160 10 -30 22 -44 41 -51 37 -13 55 4 113 109 63 111 89 120 120
42 28 -68 29 -142 5 -222 -11 -38 -22 -77 -23 -85 -2 -8 -11 -29 -22 -47 -11
-17 -28 -46 -37 -63 -22 -39 -33 -33 -48 28 -16 69 -59 116 -126 141 -65 25
-94 27 -94 6 0 -8 20 -45 45 -82 56 -83 59 -94 53 -191 -10 -151 -60 -233
-302 -496 -57 -61 -115 -154 -131 -210 -33 -112 -50 -101 -49 32 0 133 16 180
145 437 119 238 151 336 135 420 -11 58 -86 128 -153 144 -97 23 -138 -12
-274 -239 -45 -74 -112 -188 -149 -252 -37 -65 -72 -123 -77 -130 -6 -7 -24
-38 -40 -68 -17 -30 -44 -79 -62 -108 -17 -29 -31 -57 -31 -62 0 -6 -3 -10 -7
-10 -5 0 -13 -10 -19 -23 -36 -75 -68 -127 -94 -152 -42 -40 -39 -21 14 122
67 178 94 239 209 479 148 306 182 436 138 522 -50 97 -186 151 -270 107 -59
-30 -135 -136 -249 -346 -23 -42 -39 -78 -36 -81 3 -4 -4 -17 -16 -29 -12 -13
-52 -76 -87 -139 -139 -244 -178 -304 -193 -295 -20 12 21 124 133 362 122
258 125 265 152 359 73 251 50 496 -56 602 -44 45 -93 72 -222 126 -94 38
-118 53 -176 109 -94 91 -156 113 -236 85z m228 -124 c16 -6 33 -41 24 -50 -9
-9 -140 -52 -179 -59 -38 -7 -38 -7 -38 28 0 19 8 45 18 57 27 33 118 46 175
24z m241 -240 c18 -7 23 -74 6 -74 -11 0 -30 42 -30 66 0 16 2 16 24 8z"/>
<path d="M1793 3710 c-53 -11 -103 -37 -103 -54 0 -7 8 -20 18 -28 26 -23 172
-80 188 -74 20 8 19 115 -2 144 -16 23 -32 25 -101 12z"/>
<path d="M1352 3414 c-185 -189 -253 -278 -311 -412 -61 -140 -79 -297 -42
-378 47 -102 183 -153 286 -105 54 25 85 60 92 106 6 36 3 40 -56 95 -56 52
-62 61 -59 91 3 29 9 37 46 54 46 21 50 34 27 88 -8 20 -15 60 -15 90 0 152
82 259 280 364 30 16 56 36 58 45 4 23 -110 108 -145 108 -10 0 -81 -64 -161
-146z"/>
<path d="M1754 3330 c-154 -23 -279 -107 -291 -197 -7 -51 9 -81 52 -99 79
-33 169 -1 252 90 50 55 113 166 113 200 0 18 -35 19 -126 6z"/>
<path d="M3605 2088 c-139 -51 -230 -185 -203 -300 5 -24 11 -49 12 -56 3 -16
27 -33 38 -26 4 3 9 -3 9 -13 1 -10 5 10 9 45 8 69 29 101 90 132 31 16 94 19
141 7 5 -1 16 14 26 32 12 24 36 45 76 65 74 40 73 60 -2 99 -59 29 -138 35
-196 15z"/>
<path d="M3577 1844 c-55 -31 -67 -46 -67 -91 0 -37 4 -44 30 -58 24 -13 38
-13 74 -4 48 12 86 1 86 -25 0 -8 7 -16 15 -20 9 -3 15 0 15 9 0 8 4 15 9 15
9 0 8 44 -3 95 -16 70 -101 112 -159 79z m143 -118 c0 -3 -4 -8 -10 -11 -5 -3
-10 -1 -10 4 0 6 5 11 10 11 6 0 10 -2 10 -4z"/>
<path d="M3767 1811 c-3 -12 -1 -24 4 -27 14 -8 10 -133 -6 -193 -16 -61 -44
-96 -95 -117 -19 -8 -36 -14 -36 -12 -1 2 -10 -4 -20 -13 -11 -9 -31 -15 -46
-14 -18 1 -28 -3 -28 -12 0 -10 19 -13 75 -13 62 0 82 4 114 24 86 55 146 165
146 268 0 59 -3 71 -25 92 -14 14 -37 28 -51 31 -21 5 -27 2 -32 -14z"/>
<path d="M3523 1623 c9 -2 17 -8 17 -12 0 -8 47 -7 57 2 3 4 2 7 -3 8 -5 0
-27 2 -49 3 -22 2 -32 1 -22 -1z"/>
<path d="M3415 1580 c3 -5 8 -10 11 -10 2 0 4 5 4 10 0 6 -5 10 -11 10 -5 0
-7 -4 -4 -10z"/>
<path d="M1125 414 c66 -51 319 -188 296 -160 -7 9 -18 16 -23 16 -12 0 -187
98 -241 134 -41 28 -65 35 -32 10z"/>
<path d="M3597 278 c-43 -22 -76 -43 -73 -45 5 -5 166 75 166 82 0 9 -15 3
-93 -37z"/>
<path d="M3451 209 c-13 -5 -21 -12 -18 -15 3 -3 18 1 34 10 31 17 21 20 -16
5z"/>
<path d="M1520 200 c8 -5 20 -10 25 -10 6 0 3 5 -5 10 -8 5 -19 10 -25 10 -5
0 -3 -5 5 -10z"/>
<path d="M1580 180 c0 -5 5 -10 11 -10 5 0 7 5 4 10 -3 6 -8 10 -11 10 -2 0
-4 -4 -4 -10z"/>
<path d="M3390 180 c-8 -5 -10 -10 -5 -10 6 0 17 5 25 10 8 5 11 10 5 10 -5 0
-17 -5 -25 -10z"/>
<path d="M1640 157 c0 -6 152 -57 168 -57 22 0 -23 20 -73 33 -33 9 -68 19
-77 22 -10 4 -18 5 -18 2z"/>
<path d="M3280 144 c-19 -6 -91 -28 -200 -60 -47 -13 -68 -22 -47 -19 46 7
246 64 267 76 16 9 5 11 -20 3z"/>
<path d="M1820 99 c0 -5 6 -9 13 -9 6 0 23 -3 37 -7 36 -9 19 6 -19 17 -19 5
-31 5 -31 -1z"/>
<path d="M1900 79 c0 -7 178 -44 185 -38 2 2 -39 13 -91 25 -52 11 -94 17 -94
13z"/>
<path d="M2958 53 c6 -2 18 -2 25 0 6 3 1 5 -13 5 -14 0 -19 -2 -12 -5z"/>
<path d="M2109 39 c-10 -6 -7 -9 14 -9 29 0 35 5 14 13 -8 3 -20 1 -28 -4z"/>
<path d="M2840 39 c-114 -20 -358 -27 -549 -16 -68 4 -122 5 -120 2 3 -2 75
-9 162 -15 115 -8 198 -8 314 0 144 11 340 38 268 38 -16 0 -50 -4 -75 -9z"/>
</g>
</svg>
